HIERARCHY
ROOT Hips
{
 OFFSET 0.000000 0.000000 0.000000
 CHANNELS 6 Xposition Yposition Zposition Yrotation Xrotation Zrotation
 JOINT Chest
 {
  OFFSET 0.000000 9.585900 0.002600
  CHANNELS 3 Yrotation Xrotation Zrotation
  JOINT Chest2
  {
   OFFSET 0.000000 9.601200 -0.005300
   CHANNELS 3 Yrotation Xrotation Zrotation
   JOINT Chest3
   {
    OFFSET 0.000000 9.561800 0.000000
    CHANNELS 3 Yrotation Xrotation Zrotation
    JOINT Chest4
    {
     OFFSET 0.000000 9.552100 0.000000
     CHANNELS 3 Yrotation Xrotation Zrotation
     JOINT Neck
     {
      OFFSET 0.000000 14.453000 0.000000
      CHANNELS 3 Yrotation Xrotation Zrotation
      JOINT Head
      {
       OFFSET 0.000000 8.936500 -0.011300
       CHANNELS 3 Yrotation Xrotation Zrotation
       End Site
       {
        OFFSET 0.000000 17.073600 -0.006000
       }
      }
     }
     JOINT RightCollar
     {
      OFFSET -2.921100 9.558500 0.000000
      CHANNELS 3 Yrotation Xrotation Zrotation
      JOINT RightShoulder
      {
       OFFSET -13.519700 0.000000 0.000000
       CHANNELS 3 Yrotation Xrotation Zrotation
       JOINT RightElbow
       {
        OFFSET 0.000000 -29.696600 0.000000
        CHANNELS 3 Yrotation Xrotation Zrotation
        JOINT RightWrist
        {
         OFFSET 0.000000 -24.004700 0.000000
         CHANNELS 3 Yrotation Xrotation Zrotation
         End Site
         {
          OFFSET 0.000000 -17.728500 0.000000
         }
        }
       }
      }
     }
     JOINT LeftCollar
     {
      OFFSET 2.921100 9.558500 0.000000
      CHANNELS 3 Yrotation Xrotation Zrotation
      JOINT LeftShoulder
      {
       OFFSET 13.519700 0.000000 0.000000
       CHANNELS 3 Yrotation Xrotation Zrotation
       JOINT LeftElbow
       {
        OFFSET 0.000000 -29.696600 0.000000
        CHANNELS 3 Yrotation Xrotation Zrotation
        JOINT LeftWrist
        {
         OFFSET 0.000000 -24.004700 0.000000
         CHANNELS 3 Yrotation Xrotation Zrotation
         End Site
         {
          OFFSET 0.000000 -17.728500 0.000000
         }
        }
       }
      }
     }
    }
   }
  }
 }
 JOINT RightHip
 {
  OFFSET -7.771700 -0.012900 -0.001300
  CHANNELS 3 Yrotation Xrotation Zrotation
  JOINT RightKnee
  {
   OFFSET 0.000000 -40.869800 0.001200
   CHANNELS 3 Yrotation Xrotation Zrotation
   JOINT RightAnkle
   {
    OFFSET 0.000000 -39.717900 0.002100
    CHANNELS 3 Yrotation Xrotation Zrotation
    JOINT RightToe
    {
     OFFSET 0.000000 -4.965400 11.033500
     CHANNELS 3 Yrotation Xrotation Zrotation
     End Site
     {
      OFFSET 0.000000 -1.423100 5.872300
     }
    }
   }
  }
 }
 JOINT LeftHip
 {
  OFFSET 7.771700 -0.012900 -0.001300
  CHANNELS 3 Yrotation Xrotation Zrotation
  JOINT LeftKnee
  {
   OFFSET 0.000000 -40.869800 0.001200
   CHANNELS 3 Yrotation Xrotation Zrotation
   JOINT LeftAnkle
   {
    OFFSET 0.000000 -39.717900 0.002100
    CHANNELS 3 Yrotation Xrotation Zrotation
    JOINT LeftToe
    {
     OFFSET 0.000000 -4.965400 11.033500
     CHANNELS 3 Yrotation Xrotation Zrotation
     End Site
     {
      OFFSET 0.000000 -1.423100 5.872300
     }
    }
   }
  }
 }
}
MOTION
Frames: 14
Frame Time: 0.008333
-63.548924 61.916722 15.221694 175.177219 -50.199680 -0.609456 5.104231 25.786714 1.052587 0.780011 4.293358 0.046652 1.244247 6.821416 0.115288 4.046724 21.178666 0.878977 0.801361 16.207107 3.702759 0.305673 -5.662759 6.647599 3.763412 2.558220 5.871620 -0.431319 -6.583140 -14.469432 -119.832109 -61.438808 155.032596 12.783774 10.471204 -9.103944 -10.214228 0.073811 -0.481165 -9.430092 -6.030014 19.744115 123.731267 -75.323554 -148.009316 4.286407 -2.535827 5.791332 0.746171 -17.163669 -3.174301 -9.117455 63.498465 -12.537639 1.333646 -6.280257 8.223382 0.158730 -0.047329 0.080385 -4.703845 -14.515099 4.689418 27.763131 74.876682 29.924725 1.509950 -9.440286 -6.179453 -0.093499 0.185379 -0.035330
-63.551085 61.916147 15.223888 175.173521 -50.201715 -0.599681 5.099540 25.781709 1.051122 0.782267 4.296409 0.047452 1.243676 6.824632 0.111791 4.044455 21.180509 0.882934 0.849612 16.204136 3.723494 0.350320 -5.665186 6.652251 3.769411 2.555250 5.865812 -0.422463 -6.594840 -14.474368 -119.828542 -61.437455 155.027420 12.783656 10.479608 -9.111064 -10.216142 0.067495 -0.485532 -9.452591 -6.030359 19.784530 123.596239 -75.304310 -147.864542 4.287514 -2.535186 5.785461 0.749019 -17.160770 -3.178790 -9.112051 63.502707 -12.536992 1.333037 -6.337256 8.219827 0.148532 -0.034441 0.083217 -4.696124 -14.515060 4.680158 27.765172 74.869869 29.928879 1.501372 -9.434172 -6.181196 -0.084942 0.184276 -0.033952
-63.551559 61.918303 15.223976 175.175628 -50.225450 -0.603189 5.095310 25.797763 1.058503 0.783471 4.299212 0.048793 1.238423 6.823625 0.119543 4.043071 21.186635 0.878314 0.895328 16.203904 3.738116 0.422639 -5.670003 6.660809 3.777095 2.553085 5.857397 -0.416846 -6.605331 -14.481267 -119.819052 -61.432919 155.019521 12.787310 10.485313 -9.114566 -10.213554 0.057361 -0.489497 -9.458743 -6.024228 19.790485 123.543875 -75.324015 -147.841556 4.298690 -2.560549 5.812678 0.743847 -17.140742 -3.171525 -9.119345 63.515367 -12.550342 1.336154 -6.365592 8.221777 0.144575 -0.052826 0.079925 -4.693136 -14.491715 4.679488 27.772196 74.868818 29.938167 1.495754 -9.432664 -6.185058 -0.082476 0.182266 -0.028909
-63.556306 61.918604 15.225154 175.172123 -50.235279 -0.576522 5.083408 25.802730 1.035991 0.779875 4.301615 0.049168 1.240884 6.821304 0.122757 4.039675 21.189475 0.884156 0.978715 16.202078 3.772304 0.482791 -5.671936 6.660858 3.786048 2.552815 5.848815 -0.416258 -6.610890 -14.490788 -119.815552 -61.427718 155.019896 12.793669 10.493534 -9.115763 -10.213025 0.058856 -0.496719 -9.457819 -6.025503 19.786145 123.531520 -75.334713 -147.841307 4.294670 -2.552039 5.808276 0.751475 -17.135575 -3.187394 -9.131326 63.527681 -12.568394 1.299859 -6.370174 8.209904 0.183173 -0.103272 0.092804 -4.681433 -14.484919 4.654495 27.791780 74.857821 29.955408 1.485534 -9.445057 -6.182182 -0.082142 0.201406 -0.029115
-63.558251 61.920052 15.225540 175.183763 -50.253903 -0.576338 5.071844 25.819414 1.029124 0.777915 4.284403 0.063452 1.241361 6.833138 0.116103 4.035745 21.194693 0.881076 1.019872 16.200316 3.790198 0.548718 -5.671107 6.669983 3.792636 2.551017 5.851480 -0.418958 -6.614103 -14.501268 -119.815865 -61.423257 155.025153 12.804037 10.499217 -9.104983 -10.216930 0.061790 -0.497693 -9.460962 -6.024969 19.797250 123.501137 -75.337571 -147.816508 4.297277 -2.559534 5.816665 0.751064 -17.119808 -3.192891 -9.131749 63.545754 -12.572393 1.294892 -6.416630 8.213128 0.176626 -0.088857 0.092294 -4.685006 -14.467228 4.642618 27.803675 74.850549 29.966965 1.473764 -9.439689 -6.184844 -0.071442 0.199347 -0.025979
-63.558196 61.922042 15.225592 175.183854 -50.275981 -0.577450 5.072190 25.830007 1.040581 0.779244 4.287879 0.061171 1.241339 6.835327 0.117534 4.035436 21.195323 0.888623 1.053714 16.203047 3.799679 0.609024 -5.671434 6.681318 3.794414 2.555928 5.850618 -0.423031 -6.617034 -14.514175 -119.814745 -61.421116 155.026455 12.809082 10.505004 -9.103351 -10.233391 0.067436 -0.492968 -9.453557 -6.027264 19.813373 123.435476 -75.323378 -147.754897 4.302059 -2.571916 5.827837 0.757700 -17.098985 -3.189100 -9.138597 63.555898 -12.577419 1.296803 -6.457275 8.213906 0.170846 -0.091720 0.090667 -4.680464 -14.443757 4.645554 27.786163 74.848123 29.951208 1.461034 -9.436295 -6.189664 -0.057099 0.196580 -0.019726
-63.557368 61.922955 15.226507 175.184270 -50.288891 -0.582558 5.077171 25.832173 1.054312 0.776856 4.293213 0.059383 1.241543 6.837698 0.118969 4.037472 21.197533 0.896207 1.084350 16.203929 3.810022 0.665627 -5.672230 6.693440 3.801569 2.558249 5.847258 -0.433761 -6.623093 -14.523130 -119.807382 -61.419018 155.020168 12.812202 10.514075 -9.102159 -10.242742 0.062745 -0.493275 -9.445693 -6.024708 19.813603 123.402022 -75.326309 -147.734486 4.306323 -2.574849 5.831117 0.759361 -17.086680 -3.182238 -9.142232 63.565292 -12.579307 1.301649 -6.508110 8.211839 0.167940 -0.124739 0.085415 -4.680241 -14.429721 4.656891 27.763576 74.847610 29.929040 1.440204 -9.435648 -6.199346 -0.040326 0.195623 -0.009275
-63.557988 61.923068 15.227854 175.164669 -50.294740 -0.563072 5.085445 25.828369 1.056118 0.777497 4.300180 0.057911 1.241753 6.840241 0.116007 4.037594 21.198940 0.898296 1.118063 16.205664 3.827191 0.677277 -5.675186 6.693206 3.816335 2.561084 5.850535 -0.444404 -6.632120 -14.531767 -119.793219 -61.418768 155.018282 12.812959 10.524159 -9.114071 -10.243590 0.057170 -0.491230 -9.443314 -6.021329 19.814879 123.377756 -75.325991 -147.716924 4.304302 -2.576678 5.816572 0.776258 -17.077841 -3.186510 -9.134834 63.573095 -12.569082 1.299517 -6.594020 8.201465 0.159095 -0.089139 0.090466 -4.659300 -14.419119 4.656256 27.720747 74.842613 29.889730 1.426480 -9.442866 -6.202266 -0.026812 0.204288 -0.003932
-63.557349 61.924135 15.228445 175.152686 -50.306807 -0.556390 5.092770 25.835960 1.066375 0.777260 4.301687 0.058428 1.242530 6.843139 0.111630 4.037608 21.200494 0.899603 1.141205 16.207021 3.839123 0.758931 -5.669138 6.711006 3.829278 2.561540 5.857071 -0.457883 -6.635372 -14.542483 -119.785087 -61.422280 155.017866 12.808884 10.525420 -9.115366 -10.243781 0.050451 -0.490286 -9.443485 -6.017449 19.812201 123.365001 -75.331392 -147.708175 4.297787 -2.567565 5.812549 0.782561 -17.067560 -3.175000 -9.134174 63.582801 -12.573779 1.285704 -6.644663 8.195950 0.164164 -0.086867 0.093503 -4.648701 -14.405972 4.657546 27.701223 74.847460 29.869558 1.436202 -9.448416 -6.198006 -0.030699 0.206888 -0.006715
-63.558767 61.924747 15.229145 175.151556 -50.314374 -0.546240 5.087315 25.839157 1.064325 0.776796 4.304816 0.056317 1.242067 6.844404 0.114311 4.035632 21.203293 0.901690 1.145798 16.207096 3.832483 0.831685 -5.659757 6.729101 3.843540 2.563312 5.854953 -0.465900 -6.637298 -14.553976 -119.780755 -61.421332 155.015493 12.802856 10.531230 -9.117988 -10.247426 0.045075 -0.495169 -9.438609 -6.015994 19.807051 123.326656 -75.342964 -147.680640 4.293968 -2.565317 5.810472 0.785488 -17.059594 -3.182013 -9.129283 63.589563 -12.569760 1.278734 -6.696299 8.188355 0.164695 -0.083567 0.095706 -4.642230 -14.399173 4.646044 27.706455 74.840453 29.870944 1.436686 -9.442353 -6.189838 -0.036465 0.205759 -0.010542
-63.559033 61.925572 15.229707 175.151432 -50.322789 -0.544446 5.085281 25.842085 1.071599 0.776970 4.309838 0.049378 1.240469 6.844708 0.121643 4.033007 21.206785 0.904189 1.174695 16.210247 3.841702 0.822757 -5.663861 6.720090 3.866105 2.560997 5.850988 -0.480133 -6.632073 -14.565889 -119.778467 -61.416370 155.014110 12.797629 10.540144 -9.123138 -10.255213 0.041095 -0.499037 -9.429338 -6.014183 19.803188 123.306157 -75.347455 -147.668362 4.297129 -2.548780 5.802622 0.784741 -17.051168 -3.180975 -9.132297 63.593262 -12.573383 1.278915 -6.734971 8.182521 0.162285 -0.090937 0.094965 -4.639227 -14.391270 4.641929 27.713987 74.836655 29.879031 1.433140 -9.438761 -6.188019 -0.036041 0.203769 -0.013082
-63.559390 61.926134 15.230398 175.149941 -50.328743 -0.542141 5.082921 25.844555 1.077459 0.779144 4.307878 0.052604 1.239399 6.847657 0.123010 4.029625 21.210915 0.908011 1.200830 16.214859 3.847407 0.869330 -5.656284 6.721424 3.873724 2.562925 5.833589 -0.475170 -6.626555 -14.567331 -119.746155 -61.428820 154.975790 12.797689 10.528787 -9.131503 -10.265472 0.039912 -0.504219 -9.411975 -6.019569 19.796795 123.262376 -75.352662 -147.645726 4.292928 -2.549637 5.811545 0.784233 -17.044831 -3.178615 -9.139992 63.596187 -12.582188 1.280188 -6.774565 8.174405 0.158956 -0.086692 0.097815 -4.637088 -14.385319 4.639257 27.724549 74.831910 29.889127 1.428345 -9.436444 -6.188206 -0.034935 0.203679 -0.012423
-63.560168 61.927201 15.230531 175.150943 -50.338510 -0.540052 5.078043 25.853324 1.078455 0.775471 4.308567 0.061399 1.237966 6.852027 0.127246 4.026244 21.212543 0.903099 1.226542 16.217502 3.852443 0.915259 -5.652332 6.721547 3.879812 2.561596 5.815654 -0.461411 -6.608373 -14.563975 -119.758827 -61.432098 154.972273 12.792094 10.527214 -9.134433 -10.270541 0.036729 -0.507578 -9.386635 -6.025203 19.797905 123.208718 -75.350343 -147.615129 4.288550 -2.550940 5.813989 0.792646 -17.033489 -3.179261 -9.152896 63.601811 -12.590297 1.277234 -6.814138 8.168818 0.154615 -0.064632 0.103426 -4.635540 -14.374980 4.635420 27.723820 74.829177 29.888637 1.422569 -9.435779 -6.191223 -0.030636 0.203859 -0.008758
-63.560165 61.928046 15.230817 175.152784 -50.346663 -0.544408 5.077472 25.860947 1.083316 0.775390 4.309075 0.061612 1.237577 6.852101 0.132909 4.021382 21.220790 0.915027 1.268195 16.220720 3.861752 0.941095 -5.655222 6.715094 3.886888 2.556364 5.792212 -0.465610 -6.602736 -14.557381 -119.757374 -61.436205 154.971281 12.780426 10.534589 -9.136322 -10.270560 0.027161 -0.520789 -9.377163 -6.025697 19.795705 123.175182 -75.356392 -147.594928 4.281306 -2.548385 5.814497 0.792434 -17.026713 -3.174040 -9.156438 63.606704 -12.592942 1.276708 -6.829647 8.167716 0.154748 -0.091486 0.097876 -4.637194 -14.366509 4.636305 27.745841 74.826720 29.909792 1.419609 -9.438298 -6.190791 -0.028454 0.205675 -0.009841
